<svg width="19" height="23" viewBox="0 0 19 23" fill="none" xmlns="http://www.w3.org/2000/svg">
<g id="basket">
<path id="Rectangle-10" fill-rule="evenodd" clip-rule="evenodd" d="M18.9473 6.85876H-3.05176e-05V18.6482C-3.05176e-05 20.8574 1.79083 22.6482 3.99997 22.6482H14.9473C17.1565 22.6482 18.9473 20.8574 18.9473 18.6482V6.85876ZM3.99997 21.1482C2.61926 21.1482 1.49997 20.029 1.49997 18.6482V8.35876H17.4473V18.6482C17.4473 20.029 16.3281 21.1482 14.9473 21.1482H3.99997Z" fill="#262626"/>
<path id="Rectangle-3" d="M6.01312 12.06V5.86806C6.01312 3.95686 7.56245 2.40753 9.47365 2.40753C11.3848 2.40753 12.9342 3.95686 12.9342 5.86806V12.06C12.9342 12.4742 13.27 12.81 13.6842 12.81C14.0984 12.81 14.4342 12.4742 14.4342 12.06V5.86806C14.4342 3.12844 12.2133 0.907532 9.47365 0.907532C6.73403 0.907532 4.51312 3.12844 4.51312 5.86806V12.06C4.51312 12.4742 4.84891 12.81 5.26312 12.81C5.67734 12.81 6.01312 12.4742 6.01312 12.06Z" fill="#262626"/>
</g>
</svg>
